HIERARCHY
ROOT Hips
{
    OFFSET 0.000000 0.000000 0.000000
    CHANNELS 6 Xposition Yposition Zposition Zrotation Xrotation Yrotation
        JOINT Chest
        {
            OFFSET -0.000000 30.832245 -0.000000
            CHANNELS 3 Zrotation Xrotation Yrotation
            JOINT Neck
            {
                OFFSET -0.000000 22.747684 0.000000
                CHANNELS 3 Zrotation Xrotation Yrotation
                JOINT Head
                {
                    OFFSET -0.000000 10.755556 0.000000
                    CHANNELS 3 Zrotation Xrotation Yrotation
                    End Site
                    {
                        OFFSET -0.000000 16.622223 0.000000
                    }
                }
            }
            JOINT LeftCollar
            {
                OFFSET -0.000000 22.747684 0.000000
                CHANNELS 3 Zrotation Xrotation Yrotation
                JOINT LeftShoulder
                {
                    OFFSET 19.555553 -0.000000 0.000000
                    CHANNELS 3 Zrotation Xrotation Yrotation
                    JOINT LeftElbow
                    {
                        OFFSET 22.529686 0.000000 0.000000
                        CHANNELS 3 Zrotation Xrotation Yrotation
                        JOINT LeftWrist
                        {
                            OFFSET 26.249420 0.000000 0.000000
                            CHANNELS 3 Zrotation Xrotation Yrotation
                            End Site
                            {
                                OFFSET 0.000000 -14.666668 0.000000
                            }
                        }
                    }
                }
            }
            JOINT RightCollar
            {
                OFFSET -0.000000 22.747684 0.000000
                CHANNELS 3 Zrotation Xrotation Yrotation
                JOINT RightShoulder
                {
                    OFFSET -19.555553 0.000000 0.000000
                    CHANNELS 3 Zrotation Xrotation Yrotation
                    JOINT RightElbow
                    {
                        OFFSET -22.529686 0.000000 0.000000
                        CHANNELS 3 Zrotation Xrotation Yrotation
                        JOINT RightWrist
                        {
                            OFFSET -26.249420 0.000000 0.000000
                            CHANNELS 3 Zrotation Xrotation Yrotation
                            End Site
                            {
                                OFFSET -0.000000 -14.666668 0.000000
                            }
                        }
                    }
                }
            }
        }
    JOINT LeftHip
    {
        OFFSET 11.733333 0.000000 0.000000
        CHANNELS 3 Zrotation Xrotation Yrotation
        JOINT LeftKnee
        {
            OFFSET -0.000000 -34.781296 0.000000
            CHANNELS 3 Zrotation Xrotation Yrotation
            JOINT LeftAnkle
            {
                OFFSET -0.000000 -42.425819 0.000000
                CHANNELS 3 Zrotation Xrotation Yrotation
                End Site
                {
                    OFFSET -0.000000 -4.888888 16.622223
                }
            }
        }
    }
    JOINT RightHip
    {
        OFFSET -11.733333 0.000000 0.000000
        CHANNELS 3 Zrotation Xrotation Yrotation
        JOINT RightKnee
        {
            OFFSET -0.000000 -34.781296 0.000000
            CHANNELS 3 Zrotation Xrotation Yrotation
            JOINT RightAnkle
            {
                OFFSET -0.000000 -42.425819 0.000000
                CHANNELS 3 Zrotation Xrotation Yrotation
                End Site
                {
                    OFFSET -0.000000 -4.888888 16.622223
                }
            }
        }
    }
}
MOTION
Frames:    5
Frame Time:    0.010000
34.180779    83.824738    -7.336967    -0.738509    -9.954476    22.443380    -7.258102    25.098267    2.033100    3.731761    14.129612    -26.795910    29.756519    -12.342435    -24.603346    -9.498981    -0.244149    2.937921    -22.824257    50.683357    -35.777176    3.920650    -3.119415    -77.616280    69.650185    0.800010    3.879064    6.145021    0.138065    2.940056    38.011909    36.237000    43.784801    7.971543    3.369240    45.769005    -89.067673    0.643419    10.902445    12.728608    -17.331390    -6.894140    -33.724503    60.548550    16.886898    6.580459    -6.054325    10.032727    3.540234    -12.499476    0.868866    1.655633    22.038374    -7.149991    -5.407996    1.187130    -10.111518    
34.946503    84.249405    -7.158669    -0.624754    -10.785837    21.454552    -7.099342    25.474846    1.870313    3.514719    14.096499    -26.736807    23.179129    -11.263912    -23.984554    -9.424076    -0.201207    2.166885    -23.446012    51.184307    -35.235874    3.693675    -2.825857    -77.554108    73.510445    0.757641    5.378003    6.323388    0.126526    2.365282    39.647892    36.585758    41.808968    8.166311    3.410260    44.140152    -89.476074    0.088565    12.441479    12.270248    -15.929657    -6.761069    -27.124058    60.095203    11.397496    -4.286454    -7.158745    12.633560    3.379709    -9.989985    0.396630    1.203584    19.537882    -5.713403    -5.193619    1.999731    -9.874709    
35.656185    84.635811    -7.267724    -0.540080    -10.916910    20.124264    -7.294007    25.169508    2.265754    3.018706    13.857554    -26.301065    22.765829    -10.718113    -23.756464    -9.531384    -0.225497    2.625428    -22.711843    51.867271    -36.312103    4.248932    -3.713242    -76.886467    69.490990    0.892339    5.925957    6.156265    0.154035    2.283422    40.624390    37.392342    40.445480    7.813644    3.120624    43.361866    -89.162521    1.758434    11.551130    11.534704    -14.903988    -7.363079    -22.040802    58.435852    8.344451    9.854455    -6.094524    12.108481    2.969812    -8.592851    1.198020    1.101744    17.346361    -5.557005    -4.362978    2.840368    -9.529586    
36.624992    85.214554    -6.349728    0.052317    -13.524639    19.377039    -7.109401    27.927065    1.965926    2.844077    13.317954    -25.967884    22.518530    -10.540164    -23.519922    -9.179038    -0.236495    2.902539    -21.305452    52.340500    -38.236382    4.854287    -4.271578    -76.301552    68.337631    0.450105    5.310762    5.891532    0.110588    1.681243    40.784958    38.777126    40.610703    6.739788    2.399819    42.047966    -88.087601    2.122771    10.825210    11.047627    -10.868896    -4.568968    -10.803287    57.666882    -3.718127    0.720441    -7.591080    13.836947    2.904819    -2.648924    2.488580    1.146452    12.965217    -5.851515    -4.112390    3.927751    -9.788170    
37.163673    85.394142    -6.806430    -0.257505    -12.532685    17.477406    -7.596175    26.718115    2.639296    2.029640    12.712548    -25.201374    22.362818    -9.938991    -22.983673    -9.099110    -0.271453    3.789582    -19.932917    52.803921    -40.244675    5.094490    -4.211014    -75.810379    70.618301    -0.118092    7.618811    5.683018    0.137627    2.298543    42.256588    38.435085    38.679928    7.202877    2.740583    41.154030    -88.075142    3.105776    11.668512    10.526981    -11.063570    -5.579697    -8.712969    55.473446    -5.261448    0.830590    -7.618454    15.056502    2.484654    -3.561287    2.931644    0.773087    12.417437    -1.102837    -3.182458    4.348795    -12.921825    
